<?xml version="1.0" encoding="utf-8"?>
<!-- Generator: Adobe Illustrator 22.1.0, SVG Export Plug-In . SVG Version: 6.00 Build 0)  -->
<svg version="1.1" id="Capa_1" xmlns="http://www.w3.org/2000/svg" xmlns:xlink="http://www.w3.org/1999/xlink" x="0px" y="0px"
	 viewBox="0 0 872.3 768" style="enable-background:new 0 0 872.3 768;" xml:space="preserve">
<style type="text/css">
	.st0{fill:#87B7FD;}
	.st1{fill:#5292DD;}
</style>
<title>home-bg</title>
<g id="Capa_2_1_">
	<g id="Capa_1-2">
		<path class="st0" d="M336,405.4c8.4,17.5,40.7,85.1,117,119.8c16.2,7.4,92.6,42.1,156.9,10.4c85.1-42,58.1-155.4,137.3-212.1
			c68.1-48.8,142.1,41.3,223.9-3.2c42.7-23.3,76.8-73.6,77.9-118.6c3.4-140.5-311-376.6-542.3-262.3
			C338.1,22.4,268.5,264.2,336,405.4z"/>
		<path class="st1" d="M783.7,600c-75.9,0-157.9-26.7-234.6-78.4c-92.1-62.1-151.9-144.9-149-206c2-41.5,34.8-88.9,76.2-110.1
			c39.2-20.1,75.4-8.5,110.4,2.6c34.5,11,67.1,21.4,99.1-0.4c35.8-24.3,49.4-61.6,62.6-97.6c14.7-40.2,28.6-78.2,71-97.8
			C859-6.1,911.4-1.3,967,25.6c32.4,15.7,77.3,48.5,107.2,115.4l0,0c29.2,65.3,28.2,154.8-2.9,239.4c-32.8,89.2-94,160-168.1,194.3
			C866.6,591.7,826.1,600,783.7,600z M521.9,196.8c-15.5-0.1-30.7,3.6-44.4,10.7c-40.8,20.9-73,67.4-75,108.2
			c-2.9,60.4,56.5,142.4,147.9,204c118.9,80.1,250.5,99.9,351.8,52.9c73.5-34.1,134.3-104.4,166.9-193.1c30.9-84,32-172.9,3-237.7
			l0,0C1042.4,75.6,998,43.2,965.9,27.6C911,1,859.3-3.7,820.4,14.3c-41.5,19.2-55.2,56.8-69.8,96.5c-13.3,36.4-27,74-63.5,98.7
			c-32.9,22.3-66,11.8-101.1,0.6C565.2,203.6,543.9,196.8,521.9,196.8z"/>
	</g>
</g>
</svg>
