<svg xmlns="http://www.w3.org/2000/svg" viewBox="0 0 163.82 132.18"><defs><style>.cls-1{isolation:isolate;}.cls-2,.cls-7{fill:#e4e9fe;}.cls-3{fill:#87b7fd;}.cls-4{fill:#496dfb;}.cls-5{fill:#cbd5f0;}.cls-6{fill:#444460;opacity:0.2;mix-blend-mode:multiply;}.cls-7{opacity:0.21;}.cls-8{fill:#f9fbfc;}.cls-9{fill:#8a6fea;}.cls-10{fill:#ced3fd;}.cls-11{fill:#efc14d;}.cls-12{fill:#9fc14d;}.cls-13{fill:#cd502b;}.cls-14{fill:#dc4a42;}.cls-15{fill:#534eb4;}.cls-16{fill:#73cbfd;}.cls-17{fill:#df57a5;}.cls-18{fill:#efc261;}.cls-19{fill:#de4ecc;}.cls-20{fill:#fff;}.cls-21{fill:#f0c72f;}</style></defs><title>responsive-design</title><g class="cls-1"><g id="Capa_2" data-name="Capa 2"><g id="Objects"><rect class="cls-2" x="4.48" y="18.6" width="154.86" height="110.03" rx="6.93" ry="6.93"/><rect class="cls-3" x="6.52" y="20.05" width="150.78" height="107.13" rx="5.49" ry="5.49"/><rect class="cls-4" x="13.04" y="25.09" width="137.74" height="92.64" rx="3.38" ry="3.38"/><path class="cls-2" d="M.72,122.93a5.77,5.77,0,0,0,5.09,8.56H158a5.81,5.81,0,0,0,5.8-5.81,5.69,5.69,0,0,0-.72-2.75Z"/><path class="cls-5" d="M.72,128.43a5.8,5.8,0,0,0,5.09,3.06H158a5.79,5.79,0,0,0,5.08-3.06Z"/><path class="cls-6" d="M125.36,30.77H22V99.82a2.76,2.76,0,0,0,2.76,2.77h107.5V37.7A6.93,6.93,0,0,0,125.36,30.77Z"/><rect class="cls-7" x="25.83" y="22.75" width="120.97" height="76.73" rx="2.76" ry="2.76"/><rect class="cls-8" x="30.67" y="17.57" width="120.97" height="76.73" rx="2.76" ry="2.76"/><rect class="cls-2" x="38.1" y="25.6" width="36.29" height="61.17" rx="1.3" ry="1.3"/><rect class="cls-3" x="44.32" y="30.53" width="23.5" height="5.18" rx="1.04" ry="1.04"/><path class="cls-3" d="M52.18,64.53H47.52a2,2,0,0,1-2-2h0a2,2,0,0,1,2-2h4.66a2,2,0,0,1,2,2h0A2,2,0,0,1,52.18,64.53Z"/><path class="cls-9" d="M65.66,64.53H61a2,2,0,0,1-2-2h0a2,2,0,0,1,2-2h4.67a2,2,0,0,1,2,2h0A2,2,0,0,1,65.66,64.53Z"/><rect class="cls-8" x="43.8" y="40.9" width="25.23" height="3.97"/><rect class="cls-8" x="43.8" y="47.64" width="25.23" height="3.97"/><rect class="cls-10" x="49.24" y="54.12" width="14.52" height="0.91"/><path class="cls-9" d="M149.17,75.46H103.81a5.06,5.06,0,0,1-5.06-5.06h0a5.06,5.06,0,0,1,5.06-5.05h45.36a5.06,5.06,0,0,1,5.06,5.05h0A5.06,5.06,0,0,1,149.17,75.46Z"/><path class="cls-2" d="M109.9,32.6H81.65a4.15,4.15,0,0,1-4.15-4.15h0a4.14,4.14,0,0,1,4.15-4.14H109.9a4.14,4.14,0,0,1,4.15,4.14h0A4.15,4.15,0,0,1,109.9,32.6Z"/><path class="cls-11" d="M88.39,28.45a1.3,1.3,0,1,1-1.3-1.29A1.3,1.3,0,0,1,88.39,28.45Z"/><path class="cls-12" d="M97.29,28.45A1.3,1.3,0,1,1,96,27.16,1.3,1.3,0,0,1,97.29,28.45Z"/><path class="cls-13" d="M105.49,28.45a1.3,1.3,0,1,1-1.29-1.29A1.3,1.3,0,0,1,105.49,28.45Z"/><rect class="cls-2" x="88.24" y="41.09" width="27.81" height="18.27" rx="2.04" ry="2.04"/><path class="cls-14" d="M102.17,50.09h0a.75.75,0,0,1-.36-.1L91,44a.73.73,0,0,1-.28-1,.73.73,0,0,1,1-.28l10.39,5.77,10.4-5.77a.73.73,0,0,1,1,.28.73.73,0,0,1-.28,1l-10.72,6A.75.75,0,0,1,102.17,50.09Z"/><rect class="cls-15" x="122.34" y="12.9" width="34.48" height="44.58" rx="1.81" ry="1.81"/><path class="cls-16" d="M130,18.88h-2.29c-.12,0-.22-.2-.22-.45h0c0-.24.1-.44.22-.44H130c.13,0,.23.2.23.44h0C130.27,18.68,130.17,18.88,130,18.88Z"/><path class="cls-16" d="M144.27,18.88H131.13c-.13,0-.22-.2-.22-.45h0c0-.24.09-.44.22-.44h13.14c.12,0,.22.2.22.44h0C144.49,18.68,144.39,18.88,144.27,18.88Z"/><path class="cls-17" d="M135.32,20.71h-4.19c-.13,0-.22-.19-.22-.44h0c0-.25.09-.44.22-.44h4.19c.12,0,.22.19.22.44h0C135.54,20.52,135.44,20.71,135.32,20.71Z"/><path class="cls-2" d="M142.21,20.71h-6c-.12,0-.22-.19-.22-.44h0c0-.25.1-.44.22-.44h6c.12,0,.22.19.22.44h0C142.43,20.52,142.33,20.71,142.21,20.71Z"/><path class="cls-2" d="M144.27,29.65H131.13c-.13,0-.22-.2-.22-.44h0c0-.25.09-.45.22-.45h13.14c.12,0,.22.2.22.45h0C144.49,29.45,144.39,29.65,144.27,29.65Z"/><path class="cls-16" d="M130,31.49h-2.29c-.12,0-.22-.2-.22-.45h0c0-.24.1-.44.22-.44H130c.13,0,.23.2.23.44h0C130.27,31.29,130.17,31.49,130,31.49Z"/><path class="cls-2" d="M135.32,31.49h-4.19c-.13,0-.22-.2-.22-.45h0c0-.24.09-.44.22-.44h4.19c.12,0,.22.2.22.44h0C135.54,31.29,135.44,31.49,135.32,31.49Z"/><path class="cls-17" d="M142.21,31.49h-6c-.12,0-.22-.2-.22-.45h0c0-.24.1-.44.22-.44h6c.12,0,.22.2.22.44h0C142.43,31.29,142.33,31.49,142.21,31.49Z"/><path class="cls-17" d="M147.52,22.55H131.13c-.13,0-.22-.2-.22-.44h0c0-.25.09-.45.22-.45h16.39c.13,0,.23.2.23.45h0C147.75,22.35,147.65,22.55,147.52,22.55Z"/><rect class="cls-16" x="140.04" y="23.5" width="4.29" height="0.89" rx="0.23" ry="0.23"/><path class="cls-2" d="M136.57,24.39h-5.44c-.13,0-.22-.2-.22-.45h0c0-.24.09-.44.22-.44h5.44c.13,0,.22.2.22.44h0C136.79,24.19,136.7,24.39,136.57,24.39Z"/><path class="cls-16" d="M139.47,24.39h-2.16c-.12,0-.22-.2-.22-.45h0c0-.24.1-.44.22-.44h2.16c.12,0,.22.2.22.44h0C139.69,24.19,139.59,24.39,139.47,24.39Z"/><path class="cls-2" d="M130,26.16h-2.29c-.12,0-.22-.2-.22-.44h0c0-.25.1-.45.22-.45H130c.13,0,.23.2.23.45h0C130.27,26,130.17,26.16,130,26.16Z"/><path class="cls-2" d="M147.52,26.16H131.13c-.13,0-.22-.2-.22-.44h0c0-.25.09-.45.22-.45h16.39c.13,0,.23.2.23.45h0C147.75,26,147.65,26.16,147.52,26.16Z"/><path class="cls-2" d="M130,33.19h-2.29c-.12,0-.22-.2-.22-.45h0c0-.24.1-.44.22-.44H130c.13,0,.23.2.23.44h0C130.27,33,130.17,33.19,130,33.19Z"/><rect class="cls-2" x="140.04" y="32.3" width="5.93" height="0.89" rx="0.28" ry="0.28"/><path class="cls-2" d="M136.57,33.19h-5.44c-.13,0-.22-.2-.22-.45h0c0-.24.09-.44.22-.44h5.44c.13,0,.22.2.22.44h0C136.79,33,136.7,33.19,136.57,33.19Z"/><path class="cls-2" d="M139.47,33.19h-2.16c-.12,0-.22-.2-.22-.45h0c0-.24.1-.44.22-.44h2.16c.12,0,.22.2.22.44h0C139.69,33,139.59,33.19,139.47,33.19Z"/><path class="cls-18" d="M130,35h-2.29c-.12,0-.22-.2-.22-.44h0c0-.25.1-.45.22-.45H130c.13,0,.23.2.23.45h0C130.27,34.76,130.17,35,130,35Z"/><path class="cls-16" d="M134,35h-2.84c-.13,0-.22-.2-.22-.44h0c0-.25.09-.45.22-.45H134c.12,0,.22.2.22.45h0C134.19,34.76,134.09,35,134,35Z"/><path class="cls-16" d="M127.75,28c-.12,0-.22-.2-.22-.45h0c0-.24.1-.44.22-.44H130c.13,0,.23.2.23.44h0c0,.25-.1.45-.23.45"/><rect class="cls-2" x="140.04" y="27.11" width="6.7" height="0.89" rx="0.29" ry="0.29"/><path class="cls-18" d="M136.57,28h-5.44c-.13,0-.22-.2-.22-.45h0c0-.24.09-.44.22-.44h5.44c.13,0,.22.2.22.44h0C136.79,27.8,136.7,28,136.57,28Z"/><path class="cls-18" d="M139.47,28h-2.16c-.12,0-.22-.2-.22-.45h0c0-.24.1-.44.22-.44h2.16c.12,0,.22.2.22.44h0C139.69,27.8,139.59,28,139.47,28Z"/><path class="cls-2" d="M144.27,36.85H131.13c-.13,0-.22-.2-.22-.44h0c0-.25.09-.45.22-.45h13.14c.12,0,.22.2.22.45h0C144.49,36.65,144.39,36.85,144.27,36.85Z"/><path class="cls-2" d="M135.32,38.69h-4.19c-.13,0-.22-.2-.22-.45h0c0-.24.09-.44.22-.44h4.19c.12,0,.22.2.22.44h0C135.54,38.49,135.44,38.69,135.32,38.69Z"/><path class="cls-2" d="M142.21,38.69h-6c-.12,0-.22-.2-.22-.45h0c0-.24.1-.44.22-.44h6c.12,0,.22.2.22.44h0C142.43,38.49,142.33,38.69,142.21,38.69Z"/><path class="cls-2" d="M144.27,47.62H131.13c-.13,0-.22-.19-.22-.44h0c0-.25.09-.44.22-.44h13.14c.12,0,.22.19.22.44h0C144.49,47.43,144.39,47.62,144.27,47.62Z"/><path class="cls-17" d="M130,49.46h-2.29c-.12,0-.22-.2-.22-.44h0c0-.25.1-.45.22-.45H130c.13,0,.23.2.23.45h0C130.27,49.26,130.17,49.46,130,49.46Z"/><path class="cls-16" d="M135.32,49.46h-4.19c-.13,0-.22-.2-.22-.44h0c0-.25.09-.45.22-.45h4.19c.12,0,.22.2.22.45h0C135.54,49.26,135.44,49.46,135.32,49.46Z"/><path class="cls-2" d="M142.21,49.46h-6c-.12,0-.22-.2-.22-.44h0c0-.25.1-.45.22-.45h6c.12,0,.22.2.22.45h0C142.43,49.26,142.33,49.46,142.21,49.46Z"/><path class="cls-17" d="M130,40.52h-2.29c-.12,0-.22-.2-.22-.44h0c0-.25.1-.45.22-.45H130c.13,0,.23.2.23.45h0C130.27,40.32,130.17,40.52,130,40.52Z"/><rect class="cls-17" x="130.91" y="39.63" width="12.22" height="0.89" rx="0.27" ry="0.27"/><path class="cls-2" d="M130,42.36h-2.29c-.12,0-.22-.2-.22-.45h0c0-.24.1-.44.22-.44H130c.13,0,.23.2.23.44h0C130.27,42.16,130.17,42.36,130,42.36Z"/><path class="cls-2" d="M136.57,42.36h-5.44c-.13,0-.22-.2-.22-.45h0c0-.24.09-.44.22-.44h5.44c.13,0,.22.2.22.44h0C136.79,42.16,136.7,42.36,136.57,42.36Z"/><path class="cls-2" d="M139.47,42.36h-2.16c-.12,0-.22-.2-.22-.45h0c0-.24.1-.44.22-.44h2.16c.12,0,.22.2.22.44h0C139.69,42.16,139.59,42.36,139.47,42.36Z"/><path class="cls-2" d="M130,44.13h-2.29c-.12,0-.22-.2-.22-.44h0c0-.25.1-.45.22-.45H130c.13,0,.23.2.23.45h0C130.27,43.93,130.17,44.13,130,44.13Z"/><rect class="cls-2" x="130.91" y="43.24" width="15.39" height="0.89" rx="0.3" ry="0.3"/><path class="cls-2" d="M130,51.16h-2.29c-.12,0-.22-.2-.22-.44h0c0-.25.1-.45.22-.45H130c.13,0,.23.2.23.45h0C130.27,51,130.17,51.16,130,51.16Z"/><path class="cls-2" d="M147.51,51.16h-7.25c-.13,0-.22-.2-.22-.44h0c0-.25.09-.45.22-.45h7.25c.12,0,.22.2.22.45h0C147.73,51,147.63,51.16,147.51,51.16Z"/><path class="cls-2" d="M136.57,51.16h-5.44c-.13,0-.22-.2-.22-.44h0c0-.25.09-.45.22-.45h5.44c.13,0,.22.2.22.45h0C136.79,51,136.7,51.16,136.57,51.16Z"/><path class="cls-2" d="M139.47,51.16h-2.16c-.12,0-.22-.2-.22-.44h0c0-.25.1-.45.22-.45h2.16c.12,0,.22.2.22.45h0C139.69,51,139.59,51.16,139.47,51.16Z"/><rect class="cls-18" x="130.91" y="52.05" width="10.16" height="0.89" rx="0.24" ry="0.24"/><rect class="cls-17" x="140.04" y="45.08" width="7.09" height="0.89" rx="0.3" ry="0.3"/><path class="cls-18" d="M136.57,46h-5.44c-.13,0-.22-.2-.22-.45h0c0-.24.09-.44.22-.44h5.44c.13,0,.22.2.22.44h0C136.79,45.77,136.7,46,136.57,46Z"/><path class="cls-18" d="M139.47,46h-2.16c-.12,0-.22-.2-.22-.45h0c0-.24.1-.44.22-.44h2.16c.12,0,.22.2.22.44h0C139.69,45.77,139.59,46,139.47,46Z"/><circle class="cls-19" cx="154.04" cy="13.82" r="7.26"/><path class="cls-8" d="M153.51,13.14l-2.88,1.06,2.88,1.05v1.08l-4.12-1.57V13.64l4.12-1.57Z"/><path class="cls-8" d="M154.45,12.07l4.12,1.57v1.12l-4.12,1.57V15.25l2.89-1.05-2.89-1.06Z"/><circle class="cls-11" cx="133.08" cy="124.04" r="7.87" transform="translate(-46.68 96.08) rotate(-34.14)"/><path class="cls-20" d="M137.24,123.59a3.59,3.59,0,0,1-.24,1.34,2.17,2.17,0,0,1-.66,1,1.53,1.53,0,0,1-1,.34,1.24,1.24,0,0,1-.67-.18,1.08,1.08,0,0,1-.42-.48h-.08a1.73,1.73,0,0,1-1.4.66,1.88,1.88,0,0,1-1.42-.54,2.08,2.08,0,0,1-.52-1.48,2.33,2.33,0,0,1,.68-1.74,2.51,2.51,0,0,1,1.79-.65,6.89,6.89,0,0,1,1,.08,5.69,5.69,0,0,1,.87.2l-.12,2.49c0,.47.13.71.39.71s.39-.16.52-.48a3.3,3.3,0,0,0,.19-1.24,3,3,0,0,0-.34-1.45,2.34,2.34,0,0,0-1-1,2.94,2.94,0,0,0-1.41-.33,3.64,3.64,0,0,0-1.79.42,2.85,2.85,0,0,0-1.16,1.22,4,4,0,0,0-.41,1.84,2.92,2.92,0,0,0,.75,2.16,3,3,0,0,0,2.18.75,6.57,6.57,0,0,0,1.19-.12,8.26,8.26,0,0,0,1.27-.35v1a6.11,6.11,0,0,1-2.42.46,4.25,4.25,0,0,1-3-1,3.68,3.68,0,0,1-1.08-2.83,4.69,4.69,0,0,1,.56-2.28,4,4,0,0,1,1.57-1.61,4.63,4.63,0,0,1,2.35-.58,4.24,4.24,0,0,1,2,.46,3.22,3.22,0,0,1,1.36,1.3A3.86,3.86,0,0,1,137.24,123.59Zm-5.22.64c0,.71.3,1.07.88,1.07a.84.84,0,0,0,.7-.32,2.13,2.13,0,0,0,.29-1l.06-1.13a2.58,2.58,0,0,0-.58-.06,1.26,1.26,0,0,0-1,.4A1.58,1.58,0,0,0,132,124.23Z"/><path class="cls-9" d="M66.47,0H17.07a7.27,7.27,0,0,0,0,14.53h3.64L24.22,18l3.51-3.51H66.47A7.27,7.27,0,0,0,66.47,0Z"/><path class="cls-20" d="M52.33,9.58H19.83A.81.81,0,0,1,19,8.77h0A.82.82,0,0,1,19.83,8h32.5a.82.82,0,0,1,.81.82h0A.81.81,0,0,1,52.33,9.58Z"/><path class="cls-20" d="M42.18,5.11H19.83A.81.81,0,0,1,19,4.3h0a.82.82,0,0,1,.81-.82H42.18A.82.82,0,0,1,43,4.3h0A.81.81,0,0,1,42.18,5.11Z"/><path class="cls-21" d="M147.17,61.35a7.92,7.92,0,1,0,7.92,7.92A7.92,7.92,0,0,0,147.17,61.35Zm-4,7.31a1,1,0,1,1,1,1A1,1,0,0,1,143.16,68.66Zm4,4.93a2.52,2.52,0,0,1-2.5-2.17h5A2.51,2.51,0,0,1,147.17,73.59Zm3-4a1,1,0,1,1,1-1A1,1,0,0,1,150.21,69.62Z"/><path class="cls-9" d="M112.64,112.86l-8.89,2.44a4.62,4.62,0,0,0-3.22,5.66l1.68,6.13a4.62,4.62,0,0,0,5.66,3.22l2.66-.73,2.63,2.6.93-3.57,2.66-.73a4.62,4.62,0,0,0,3.23-5.66l-1.68-6.13A4.62,4.62,0,0,0,112.64,112.86Z"/><path class="cls-20" d="M106.76,122.91a1,1,0,1,1-1.26-.72A1,1,0,0,1,106.76,122.91Z"/><path class="cls-20" d="M111.24,121.68a1,1,0,0,1-.72,1.25,1,1,0,1,1,.72-1.25Z"/><path class="cls-20" d="M115.71,120.45a1,1,0,1,1-1.25-.71A1,1,0,0,1,115.71,120.45Z"/></g></g></g></svg>